<svg xmlns="http://www.w3.org/2000/svg" viewBox="0 0 512 512">
  <defs>
    <linearGradient id="grad" x1="0%" y1="100%" x2="100%" y2="0%">
      <stop offset="0%" style="stop-color:#1c1917;stop-opacity:1" />
      <stop offset="100%" style="stop-color:#44403c;stop-opacity:1" />
    </linearGradient>
  </defs>
  <rect width="512" height="512" rx="100" fill="url(#grad)" />
  <path d="M140 140 H 372 V 372 H 140 Z" fill="none" />
  
  <!-- Stylized Book Icon -->
  <path d="M166 160 C 166 160 216 160 256 190 C 296 160 346 160 346 160 V 352 C 346 352 296 352 256 382 C 216 352 166 352 166 352 V 160 Z" fill="#d97706" />
  <path d="M256 190 V 382" stroke="#fef3c7" stroke-width="12" stroke-linecap="round" />
  
  <!-- Sparkles -->
  <path d="M380 120 L 390 140 L 410 150 L 390 160 L 380 180 L 370 160 L 350 150 L 370 140 Z" fill="#fbbf24" />
  <circle cx="120" cy="120" r="15" fill="#fbbf24" opacity="0.8" />
</svg>